<svg height="512pt" viewBox="-27 0 512 512.00064" width="512pt" xmlns="http://www.w3.org/2000/svg"><path d="m373.046875 252.699219-52.644531-52.644531-.597656 7.855468c-1.167969 15.300782-6.640626 29.964844-15.789063 42.289063-5.105469 6.875-12.601563 11.460937-20.886719 12.945312-6.300781 8.300781-16.117187 13.191407-26.550781 13.191407-14.921875 0-28.027344-9.917969-32.085937-24.277344l-22.285157-78.910156c-4.667969-16.519532-13.855469-30.820313-25.984375-41.71875l30.746094 124.199218c7.664062 30.960938 35.449219 52.707032 67.347656 52.707032 8.789063 0 17.378906-1.671876 25.359375-4.804688 3.074219-2.726562 5.925781-5.738281 8.507813-9.019531 8.75-11.125 20.101562-19.753907 32.917968-25.238281 9.300782-7.746094 20.1875-13.425782 31.945313-16.574219zm0 0" fill="#ffc66c"/><path d="m126.214844 340.335938h-32.160156l81.703124 133.621093 30.863282-17.886719-35.5-25.730468zm0 0" fill="#5a54e0"/><path d="m88.859375 340.335938h-31.515625v161.664062h35.320312l-17.804687-40.0625zm0 0" fill="#6a80ff"/><g fill="#ff5d5d"><path d="m116.945312 10h-49.390624c-4.726563 0-8.121094 4.550781-6.777344 9.082031l13.332031 44.917969h36.277344l13.335937-44.917969c1.34375-4.53125-2.054687-9.082031-6.777344-9.082031zm0 0"/><path d="m182.140625 254c0-12.332031-10-22.332031-22.335937-22.332031h-35.828126v-41.066407c0-22.179687-13.558593-41.1875-32.835937-49.199218l-11.851563 2.953125c-23.410156 5.832031-37.398437 29.824219-30.949218 53.070312l16.125 58.109375c3.410156 12.292969 14.597656 20.796875 27.351562 20.796875h67.988282c12.335937.003907 22.335937-9.996093 22.335937-22.332031zm0 0"/><path d="m82.367188 276.335938-18.996094 64h77.984375l-18.996094-64zm0 0"/></g><path d="m90.527344 132.019531c11.84375-6.855469 19.820312-19.652343 19.820312-34.324219v-33.695312h-39.640625v33.695312c0 14.671876 7.976563 27.46875 19.820313 34.324219zm0 0" fill="#ffcdac"/><path d="m409.917969 199.214844c9.371093-9.371094 10.636719-23.300782 2.828125-31.113282-7.8125-7.808593-21.742188-6.542968-31.113282 2.828126-9.375 9.375-10.640624 23.300781-2.828124 31.113281 7.808593 7.808593 21.738281 6.542969 31.113281-2.828125zm0 0" fill="#ffc66c"/><path d="m335.324219 93.972656c9.375-9.371094 10.640625-23.300781 2.828125-31.113281-7.808594-7.808594-21.738282-6.542969-31.113282 2.832031-9.371093 9.371094-10.636718 23.300782-2.828124 31.109375 7.8125 7.8125 21.742187 6.546875 31.113281-2.828125zm0 0" fill="#ffc66c"/><path d="m34.035156 387.671875c2.632813 0 5.210938-1.070313 7.070313-2.929687 1.859375-1.863282 2.929687-4.441407 2.929687-7.070313 0-2.640625-1.066406-5.210937-2.929687-7.070313-1.859375-1.871093-4.4375-2.929687-7.070313-2.929687-2.628906 0-5.207031 1.058594-7.066406 2.929687-1.859375 1.859376-2.933594 4.429688-2.933594 7.070313 0 2.628906 1.070313 5.207031 2.933594 7.070313 1.859375 1.859374 4.4375 2.929687 7.066406 2.929687zm0 0"/><path d="m203.996094 214.878906c0 2.640625 1.0625 5.210938 2.933594 7.070313 1.855468 1.859375 4.429687 2.929687 7.066406 2.929687 2.628906 0 5.210937-1.066406 7.070312-2.929687 1.859375-1.859375 2.929688-4.4375 2.929688-7.070313 0-2.628906-1.066406-5.207031-2.929688-7.066406-1.859375-1.859375-4.441406-2.933594-7.070312-2.933594-2.640625 0-5.210938 1.070313-7.066406 2.933594-1.871094 1.859375-2.933594 4.4375-2.933594 7.066406zm0 0"/><path d="m309.171875 174.679688c-2.761719-2.761719-6.878906-3.664063-10.542969-2.308594-3.664062 1.359375-6.203125 4.722656-6.5 8.617187l-2.960937 38.824219c-1.027344 13.441406-5.816407 26.269531-13.847657 37.09375-4.382812 5.902344-11.390624 9.425781-18.742187 9.425781-10.398437 0-19.636719-6.988281-22.460937-16.996093l-.898438-3.179688c-1.503906-5.316406-7.023438-8.410156-12.34375-6.90625-5.3125 1.503906-8.40625 7.03125-6.902344 12.34375l.898438 3.183594c5.246094 18.578125 22.398437 31.558594 41.707031 31.558594 13.652344 0 26.660156-6.546876 34.800781-17.507813 10.285156-13.863281 16.417969-30.285156 17.730469-47.492187l1.304687-17.125 49.382813 49.378906-1.191406.199218c-23.105469 3.863282-43.800781 16.128907-58.28125 34.539063-11.332031 14.410156-28.34375 22.671875-46.675781 22.671875-27.363282 0-51.0625-18.550781-57.640626-45.109375l-4.457031-18.011719c-.21875-1.136718-.492187-2.253906-.828125-3.34375l-27.074218-109.355468c-.105469-.421876-.222657-.839844-.339844-1.261719 13.839844 10.113281 24.398437 24.691406 29.273437 41.949219 1.246094 4.40625 5.253907 7.285156 9.617188 7.285156.902343 0 1.816406-.121094 2.726562-.378906 5.3125-1.5 8.40625-7.027344 6.902344-12.34375-11.625-41.164063-48.980469-70.207032-91.507813-71.605469.007813-.378907.027344-.75.027344-1.128907v-32.242187l12.917969-43.527344c1.550781-5.214843.570313-10.703125-2.679687-15.0625-3.253907-4.363281-8.242188-6.863281-13.683594-6.863281h-92.386719c-5.441406 0-10.429687 2.5-13.683594 6.863281-3.253906 4.355469-4.230469 9.847657-2.683593 15.0625l12.921874 43.527344v32.242187c0 14.953126 6.65625 28.371094 17.148438 37.476563-13.117188 3.78125-24.074219 12.289063-30.992188 24.152344-7.2460932 12.429687-9.121093 26.910156-5.273437 40.777343l16.125 58.109376c1.414063 5.09375 3.835937 9.710937 7.007813 13.667968-.253907.511719-.46875 1.046875-.636719 1.605469l-18.996094 64c-.894531 3.027344-.3125 6.300781 1.574219 8.828125 1.886718 2.527344 4.859375 4.019531 8.015625 4.019531h62.558593l-11.699218 101.605469h-21.863282v-39.042969c0-5.523437-4.476562-10-10-10-5.523437 0-10 4.476563-10 10v89.105469c0 5.523438 4.476563 10 10 10h58.585938c3.386719 0 6.539062-1.710938 8.386719-4.550781 1.84375-2.839844 2.128906-6.417969.753906-9.511719l-16.699219-37.566406 6.773438-58.839844 55.5625 89.207031c1.894531 3.035157 5.152344 4.710938 8.5 4.710938 1.703125 0 3.429687-.433594 5.003906-1.347657l50.6875-29.382812c2.929688-1.695312 4.800781-4.757812 4.972656-8.140625.171875-3.378906-1.375-6.617187-4.117187-8.605469l-33.511719-24.292968-36.625-73.40625c2.777344-.277344 5.332031-1.699219 7.019531-3.957032 1.886719-2.53125 2.46875-5.804687 1.570313-8.828125l-15.179688-51.15625h24.085938c7.359375 0 14.152344-2.476562 19.597656-6.636719 11.53125 30.625 40.84375 51.304688 74.242188 51.304688 24.503906 0 47.246093-11.046875 62.394531-30.308594 11.394531-14.488281 27.679687-24.140625 45.859375-27.179687l20.347656-3.398438c3.691406-.617187 6.730469-3.246093 7.875-6.8125 1.140625-3.566406.195312-7.472656-2.453125-10.121093zm-164.9375-34.691407 20.308594 82.03125c-1.546875-.230469-3.128907-.351562-4.738281-.351562h-25.828126v-31.0625c0-23.347657-12.71875-43.765625-31.582031-54.730469 5.609375-4.664062 10.175781-10.546875 13.300781-17.230469.460938.066407.929688.113281 1.410157.113281 12.878906-.003906 24.035156 8.730469 27.128906 21.230469zm-103.164063-65.988281h59.277344v23.695312c0 16.34375-13.296875 29.636719-29.640625 29.636719-16.339843 0-29.636719-13.292969-29.636719-29.636719zm71.90625-54-10.09375 34h-64.347656l-10.09375-34zm-68.9375 472v-20.0625h24.28125l8.917969 20.0625zm53.695313-141.667969h22.253906l37.953125 76.066407-19.875 11.519531-42.550781-68.3125zm61.523437 121.609375-10.609374-17.039062 21.828124-12.652344 17.777344 12.886719zm-31.339843-141.609375h-38.96875c-.007813 0-.015625 0-.019531 0h-60.488282l13.058594-44h73.359375zm31.886719-64h-104.734376c-8.234374 0-15.519531-5.539062-17.71875-13.46875l-16.125-58.109375c-2.394531-8.621094-1.226562-17.625 3.277344-25.355468 4.511719-7.730469 11.773438-13.179688 20.453125-15.34375l26.863281-6.691407c23.34375.59375 42.15625 19.753907 42.15625 43.238281v31.066407h-31.625l-9.410156-32.761719c-1.523437-5.304688-7.058594-8.371094-12.371094-6.851562-5.308593 1.523437-8.375 7.0625-6.851562 12.371093l11.488281 40c1.230469 4.289063 5.148438 7.242188 9.609375 7.242188h84.988282c5.433593 0 10.046874 3.535156 11.6875 8.425781l.460937 1.859375c.109375.667969.183594 1.347656.183594 2.046875.003906 6.800781-5.53125 12.332031-12.332031 12.332031zm0 0"/><path d="m451.945312 117.941406-30.40625-12c-3.078124-1.214844-6.5625-.828125-9.296874 1.035156-2.738282 1.859376-4.375 4.957032-4.375 8.265626v38.859374c-3.476563-.980468-7.199219-1.328124-10.996094-.984374-8.203125.746093-16.125 4.5625-22.308594 10.746093-6.183594 6.183594-10 14.105469-10.746094 22.308594-.796875 8.753906 2.089844 17.117187 7.917969 22.945313 5.367187 5.371093 12.550781 8.007812 20.03125 8.007812 8.816406 0 18.050781-3.664062 25.222656-10.835938 7.144531-7.140624 10.800781-16.332031 10.828125-25.117187.035156-.328125.050782-.664063.050782-1.003906v-50.226563l16.738281 6.601563c5.136719 2.027343 10.945312-.492188 12.972656-5.628907 2.027344-5.136718-.496094-10.945312-5.632813-12.972656zm-49.097656 74.207032c-5.367187 5.363281-13.136718 6.664062-16.972656 2.828124-2.214844-2.214843-2.292969-5.332031-2.140625-6.996093.316406-3.496094 2.128906-7.136719 4.96875-9.976563s6.480469-4.648437 9.976563-4.96875c.3125-.027344.671874-.050781 1.0625-.050781 1.730468 0 4.128906.386719 5.933593 2.191406 3.832031 3.832031 2.539063 11.605469-2.828125 16.972657zm0 0"/><path d="m317.175781 111.882812c8.816407 0 18.050781-3.664062 25.222657-10.835937 7.148437-7.144531 10.800781-16.339844 10.828124-25.128906.03125-.328125.050782-.65625.050782-.992188v-50.226562l16.738281 6.601562c5.136719 2.03125 10.945313-.492187 12.972656-5.628906 2.027344-5.136719-.496093-10.945313-5.632812-12.972656l-30.40625-12c-3.082031-1.214844-6.5625-.828125-9.296875 1.035156-2.738282 1.859375-4.375 4.957031-4.375 8.265625v38.875c-10.917969-3.03125-23.886719.328125-33.304688 9.746094-13.257812 13.257812-14.523437 33.558594-2.828125 45.253906 5.371094 5.371094 12.550781 8.007812 20.03125 8.007812zm-8.03125-29.144531c.316407-3.5 2.128907-7.132812 4.96875-9.976562 3.277344-3.273438 7.453125-5.035157 11.078125-5.035157 2.3125 0 4.398438.714844 5.890625 2.207032 3.835938 3.835937 2.539063 11.605468-2.828125 16.972656-2.839844 2.839844-6.472656 4.648438-9.972656 4.96875-1.664062.152344-4.78125.074219-6.996094-2.140625s-2.292968-5.332031-2.140625-6.996094zm0 0"/></svg>